# Blender v2.66 (sub 1) OBJ File: 'cube.blend'
# www.blender.org
mtllib cube.mtl
o Cube
v 1.000000 -1.000000 -1.000000
v 1.000000 -1.000000 1.000000
v -1.000000 -1.000000 1.000000
v -1.000000 -1.000000 -1.000000
v 1.000000 1.000000 -1.0000000
v 1.000000 1.000000 1.00000
v -1.000000 1.000000 1.000000
v -1.000000 1.000000 -1.000000
vt 0.000000 0.750000
vt 0.000000 1.000000
vt 0.250000 1.000000
vt 0.250000 0.750000
vt 0.750000 0.250000
vt 0.750000 0.750000
vt 0.250000 0.250000
vt 0.750000 0.000000
vt 0.250000 0.000000
vt 0.000000 0.250000
vt 0.250000 1.000000
vt 0.750000 1.000000
vt 1.000000 0.250000
vt 1.000000 0.750000
vn 0.000000 -1.000000 0.000000
vn 0.000000 1.000000 0.000000
vn 1.000000 0.000000 0.000000
vn -0.000000 -0.000000 1.000000
vn -1.000000 -0.000000 -0.000000
vn 0.000000 0.000000 -1.000000
usemtl Material
s off
f 1/1/1 2/2/1 3/3/1 4/4/1
f 5/5/2 8/6/2 7/4/2 6/7/2
f 1/8/3 5/5/3 6/7/3 2/9/3
f 2/10/4 6/7/4 7/4/4 3/1/4
f 3/11/5 7/4/5 8/6/5 4/12/5
f 5/5/6 1/13/6 4/14/6 8/6/6
